<svg width="9" height="9" viewBox="0 0 9 9" fill="none" xmlns="http://www.w3.org/2000/svg">
<path fill-rule="evenodd" clip-rule="evenodd" d="M8.10379 6.15639C8.22879 6.28139 8.29129 6.43318 8.29129 6.61175C8.29129 6.79032 8.22879 6.94211 8.10379 7.06711L7.19308 7.97782C7.06808 8.10282 6.91629 8.16532 6.73772 8.16532C6.55915 8.16532 6.40736 8.10282 6.28236 7.97782L4.31361 6.00907L2.34487 7.97782C2.21987 8.10282 2.06808 8.16532 1.88951 8.16532C1.71094 8.16532 1.55915 8.10282 1.43415 7.97782L0.523437 7.06711C0.398437 6.94211 0.335938 6.79032 0.335938 6.61175C0.335938 6.43318 0.398437 6.28139 0.523437 6.15639L2.49219 4.18764L0.523437 2.21889C0.398437 2.09389 0.335938 1.9421 0.335938 1.76353C0.335938 1.58496 0.398437 1.43318 0.523437 1.30818L1.43415 0.397461C1.55915 0.272461 1.71094 0.209961 1.88951 0.209961C2.06808 0.209961 2.21987 0.272461 2.34487 0.397461L4.31361 2.36621L6.28236 0.397461C6.40736 0.272461 6.55915 0.209961 6.73772 0.209961C6.91629 0.209961 7.06808 0.272461 7.19308 0.397461L8.10379 1.30818C8.22879 1.43318 8.29129 1.58496 8.29129 1.76353C8.29129 1.9421 8.22879 2.09389 8.10379 2.21889L6.13504 4.18764L8.10379 6.15639Z" fill="#FCFCFC"/>
</svg>
